<?xml version="1.0" encoding="UTF-8"?>
<!DOCTYPE svg PUBLIC "-//W3C//DTD SVG 1.1//EN" "http://www.w3.org/Graphics/SVG/1.1/DTD/svg11.dtd">
<!-- Creator: CorelDRAW -->
<svg xmlns="http://www.w3.org/2000/svg" xml:space="preserve" width="250mm" height="250mm" version="1.1" style="shape-rendering:geometricPrecision; text-rendering:geometricPrecision; image-rendering:optimizeQuality; fill-rule:evenodd; clip-rule:evenodd; "
viewBox="0 0 25000 25000"
 xmlns:xlink="http://www.w3.org/1999/xlink"
 xmlns:xodm="http://www.corel.com/coreldraw/odm/2003">
 <defs>
  <style type="text/css">
   <![CDATA[
    .fil2 {fill:#FFD51E;fill-rule:nonzero}
   ]]>
  </style>
 </defs>
 <g id="Camada_x0020_1">
  <metadata id="CorelCorpID_0Corel-Layer"/>

  <path class="fil2 logo_carro" d="M3133.87 8859.8l116.02 7.81c12.94,0.72 25.73,1.3 38.68,1.89l77.35 3.61c25.74,0.87 51.47,1.3 77.21,2.02 51.48,1.89 103.09,1.3 154.42,1.74 12.79,0.15 25.73,-0.15 38.53,-0.44l77.06 -1.3 19.26 -0.44 19.27 -0.71c51.2,-2.33 102.52,-3.61 153.57,-7.52 25.58,-1.74 51.17,-3.05 76.63,-5.22l76.34 -6.65c12.8,-1.15 25.44,-2.02 38.23,-3.46l37.97 -4.35 76.06 -8.67 75.76 -10.26 37.82 -5.22 37.68 -6.22 75.32 -12.28 74.78 -14.17 37.51 -7.09c12.38,-2.32 24.74,-5.35 37.1,-7.95l74.34 -16.2c12.36,-2.46 24.59,-5.78 36.95,-8.83l36.81 -9.1c24.44,-6.07 49.46,-11.72 73.04,-18.66l71.45 -19.8 17.82 -4.93 18.84 -5.79 37.82 -11.56 56.5 -17.35 15.67 -5.5 72.04 -24.87 72.03 -24.73c12.08,-3.9 23.87,-8.53 35.79,-13.16l35.66 -13.74 71.32 -27.19 35.66 -13.74c11.93,-4.48 23.72,-9.67 35.51,-14.59l141.47 -59.01 140.47 -62.9c23.45,-10.12 46.73,-21.41 70.03,-32.39l69.87 -33.12 34.94 -16.48 17.4 -8.24 17.39 -8.68 69.73 -34.28 69.6 -34.28c23.13,-11.56 46.28,-23.56 69.43,-35.28l69.6 -35.28c23.15,-11.72 46.3,-23.43 69.43,-35.57l139.05 -72.17 279.65 -145.9 140.9 -72.74 70.73 -36.44 71.17 -36.01 71.45 -35.72 35.66 -17.93 36.1 -17.5 144.64 -69.85 146.49 -67.39c24.15,-11.41 49.76,-22.13 74.78,-33.11l75.76 -32.69 37.82 -16.2 18.97 -8.08 18.27 -7.37 73.17 -29.22 73.33 -29.22 9.2 -3.6 12.38 -4.63 18.82 -7.09 37.68 -13.89 75.48 -27.91 37.66 -14.02c12.51,-4.48 25.31,-8.83 37.97,-13.31l151.82 -52.93 152.98 -49.89c12.79,-4.2 25.45,-8.37 38.4,-12.44l38.38 -11.71 77.06 -23.42c25.59,-7.8 51.33,-15.76 77.07,-23.28l77.5 -21.84c51.61,-14.61 103.22,-29.5 155.28,-42.66l116.88 -30.36 19.56 -5.07 19.56 -4.76 156.7 -37.32c419.11,-94.87 844.7,-162.98 1273.43,-197.54l80.38 -6.65 20.14 -1.59 20.41 -1.15 122.06 -7.37c27.04,-1.61 54.63,-3.48 80.52,-4.2l157.57 -5.78 12.1 -0.44 10.05 -0.15 19.99 -0.43 40.1 -0.59 80.09 -1.43c20.85,-0.51 41.71,-0.76 62.57,-0.87l2.51 0 82.7 0 2.5 0 2.51 0 2.51 0 2.5 0 2.51 0 2.51 0c52.65,0.13 105.3,-0.42 157.95,1.15l160.31 3.19 160.46 6.22 40.12 1.59c13.36,0.57 26.74,1.59 40.1,2.3l80.24 4.92 80.07 4.78c13.38,0.72 26.76,1.74 40.12,2.89l40.12 3.33c53.33,4.47 106.67,8.39 160.15,13.3l159.9 16.91 39.97 4.2 39.96 5.21 159.59 20.83c26.59,3.76 53.05,8.09 79.66,12.13l79.5 12.59 39.84 6.21 19.84 3.2 19.84 3.74 158.57 29.37c26.46,4.48 52.63,10.41 78.94,16.04l78.93 16.93 78.81 17.07 78.35 19.37 78.5 19.37 39.11 9.69c13.08,3.18 26.03,7.09 38.95,10.7l155.57 43.54 19.42 5.63 57.94 18.22 77.07 24.3 38.53 12.28c12.79,4.2 25.74,7.83 38.53,12.59l77.35 27.48 77.2 27.47 38.53 13.74 36.68 14.46 146.65 58.13 11.79 4.63 9.2 4.04 18.69 8.11 37.1 16.19 74.32 32.55c25.02,10.41 49.17,22.26 73.63,33.69l72.89 34.7c49.02,22.41 96.47,47.58 144.35,71.58 23.87,12.3 48.02,24 71.74,36.59l70.6 37.74c188.64,100.51 372.1,207.23 554.12,313.22 182.02,106.3 362.3,211.71 544.91,310.78 45.43,25.45 91.45,48.86 137.31,73.17 23,11.86 45.71,24.3 68.86,35.71l69.3 34.42 69.45 34.28c23.15,11.13 46.58,21.54 70.02,32.39l70.01 32.25c23.43,11.14 46.74,20.09 70.02,30.22l70.03 29.35 34.92 14.61c12.1,4.78 24.59,9.26 36.82,13.89l73.91 27.76 36.79 13.74 18.56 6.93c3.46,1.31 0.28,0.15 2.3,0.87l4.46 1.46 9.05 3.02c94.89,33.13 193.1,60.17 292.45,84.32 198.99,48.3 404.01,82.57 610.9,115.39 103.39,16.5 207.48,32.39 311.85,49.61l39.25 6.37 39.4 6.78c26.17,4.5 52.91,8.82 78.5,13.61l155.13 28.63c205.76,37.58 412.93,72.3 620.26,108.45 414.8,72.3 831.17,149.52 1240.36,262.47 204.46,56.69 407.19,122.04 604.45,203.03 98.62,40.48 195.83,84.87 290.72,134.05l17.82 9.1 17.69 9.55 35.22 19.24c23.43,12.86 46.45,26.6 69.73,39.77 22.87,14.03 45.87,27.61 68.45,42.07 22.43,14.76 45.15,28.93 67.14,44.41l33.07 22.85 32.49 23.71c21.84,15.61 42.84,32.39 64.12,49.02 10.64,8.09 20.84,16.77 31.2,25.46l30.92 25.87 30.04 26.91c10.07,8.96 20.13,17.78 29.77,27.33l29.19 27.91 7.18 6.93 21.13 21.85c9.2,9.68 18.84,19.22 27.89,29.2l27.05 30.08c4.46,5.07 9.05,9.98 13.36,15.04l12.94 15.61 25.74 31.11 24.59 32.09c8.18,10.71 16.53,21.41 24,32.54l23.15 33.11c4.02,5.5 7.63,11.15 11.22,16.93l10.92 17.06 10.8 17.07c3.72,5.63 7.33,11.28 10.63,17.2l20.26 34.99c3.31,5.79 6.92,11.57 9.92,17.5l28.05 53.81 17.1 36.58c5.61,12.15 11.51,24.28 16.4,36.87l15.39 37.3 3.74 9.42 3.44 9.39 6.9 19.08c4.46,12.59 9.2,25.18 13.37,37.89l11.93 38.61 6.05 19.24c1.87,6.37 3.45,13.02 5.17,19.52l10.21 39.19 2.59 9.83c0.87,3.19 1.43,6.52 2.15,9.7l12.51 58.12c2.44,11.44 -4.59,22.72 -15.81,25.74 -11.65,3.05 -23.44,-4.04 -26.46,-15.76l-9.77 -38.45 -4.9 -19.09c-0.87,-3.19 -1.58,-6.52 -2.43,-9.54l-2.88 -9.42 -11.22 -37.02c-1.87,-6.06 -3.44,-12.28 -5.61,-18.36l-6.47 -18.5 -12.94 -36.74c-4.59,-12 -9.62,-24 -14.36,-36.15l-7.34 -17.94 -3.61 -8.95 -4.02 -8.83 -16.1 -35.43c-5.18,-11.85 -11.21,-23.28 -17.1,-34.85l-17.69 -34.56 -19.13 -33.7 -9.48 -16.78c-3.16,-5.63 -6.77,-10.98 -10.21,-16.48l-20.56 -32.82c-3.31,-5.63 -7.05,-10.85 -10.64,-16.2l-11.07 -15.91 -10.92 -15.91c-3.6,-5.35 -7.34,-10.7 -11.23,-15.76l-23.28 -30.94c-7.62,-10.41 -15.97,-20.26 -24.15,-30.23l-24.46 -29.79 -25.74 -28.91 -12.92 -14.32c-4.33,-4.77 -8.92,-9.4 -13.23,-14.03l-26.89 -27.91c-8.92,-9.11 -18.41,-17.93 -27.74,-26.89l-13.82 -13.45 -7.05 -6.66 -7.18 -6.37 -28.76 -25.89c-9.49,-8.67 -19.54,-16.76 -29.46,-25l-29.63 -24.73 -30.62 -23.72c-10.07,-7.96 -20.27,-15.91 -30.76,-23.43 -20.86,-15.18 -41.56,-30.5 -63.12,-44.68l-31.92 -21.69 -32.78 -20.83c-21.43,-14.17 -44,-27.04 -66,-40.49 -11.07,-6.66 -22.43,-12.87 -33.65,-19.22l-33.64 -19.09c-23,-12.02 -45.58,-24.45 -68.58,-36.15l-34.79 -17.37 -17.25 -8.67 -17.54 -8.39c-93.47,-44.54 -189.07,-84.46 -286.41,-120.74 -194.38,-72.45 -394.66,-129.86 -597.11,-178.75 -202.43,-48.87 -407.45,-88.93 -613.34,-124.5 -206.04,-35.58 -413.09,-66.39 -620.85,-96.02 -207.76,-29.65 -416.22,-58 -625,-90.1l-155.85 -24c-26.02,-4.05 -51.32,-7.37 -77.06,-11.13l-38.38 -5.35 -38.82 -5.22c-103.52,-13.87 -207.63,-26.74 -312.15,-40.19 -104.67,-13.46 -209.63,-27.63 -314.87,-43.67 -105.24,-16.2 -210.77,-35 -316.31,-57.42 -105.53,-22.41 -211.07,-48.3 -315.59,-81.56l-9.92 -3.04 -4.9 -1.44c-1.13,-0.28 -7.46,-2.45 -7.03,-2.32l-18.55 -6.35 -37.38 -12.87 -74.63 -25.61c-12.36,-4.19 -24.72,-8.39 -37.23,-12.87l-38.25 -14.74 -76.34 -29.5c-51.61,-19.08 -100.35,-40.78 -149.96,-61.75 -24.73,-10.57 -49.6,-20.96 -74.04,-31.81l-73.04 -33.56 -73.04 -33.69c-24.3,-11.29 -48.03,-23.42 -72.03,-35.13 -47.89,-23.59 -96.34,-46.72 -143.34,-71.44 -189.94,-96.89 -375.56,-199.27 -559.73,-300.51 -184.18,-101.36 -367.64,-200.99 -552.55,-294.42l-69.3 -35c-23.15,-11.57 -46.43,-22.41 -69.73,-33.54 -46.58,-21.98 -92.73,-45.13 -139.88,-65.5l-70.32 -31.24c-23.43,-10.57 -46.73,-21.26 -70.45,-30.52l-71.02 -29.07 -35.37 -14.45 -17.82 -7.24 -8.77 -3.76c-0.3,0 -0.3,0 -0.3,-0.15 0,0.15 -0.14,0.15 -1.72,-0.57l-4.6 -1.74 -147.94 -54.52 -37.1 -13.74 -35.94 -11.84 -72.04 -23.59 -71.89 -23.72c-11.79,-4.19 -24.45,-7.37 -36.66,-11.13l-36.81 -10.69 -110.57 -32.39 -18.54 -5.5 -18.56 -4.78 -148.95 -38.46c-12.36,-3.04 -24.72,-6.65 -37.23,-9.39l-37.53 -8.39 -75.04 -16.93 -75.06 -16.77 -75.63 -14.6 -75.48 -14.76c-25.17,-4.77 -50.32,-9.98 -75.78,-13.74l-151.95 -24.87 -19.13 -3.18 -18.99 -2.6 -38.23 -5.2 -76.35 -10.28c-25.6,-3.46 -50.91,-7.22 -76.49,-10.26l-76.63 -8.24 -76.78 -8.39 -38.25 -4.2 -38.54 -3.17 -153.82 -12.87c-51.35,-3.48 -102.81,-6.09 -154.28,-9.26l-38.54 -2.33c-12.79,-0.71 -25.73,-1.43 -38.53,-1.87l-154.56 -5.21c-12.95,-0.29 -25.74,-0.85 -38.68,-1.16l-193.38 -2.17 -154.7 1.61c-51.61,0.13 -103.24,2.15 -154.85,3.76 -51.61,1.59 -103.24,2.89 -154.84,5.91l-152.55 7.83 -157.3 11.41c-26.59,1.59 -51.33,4.35 -76.78,6.65l-75.61 7.24 -37.97 3.61 -18.84 1.89 -19.12 2.15 -76.48 9.11c-407.91,47.3 -812.05,126.54 -1210.88,226.04 -199.28,50.32 -397.27,106.58 -593.96,167.32l-73.6 22.98 -36.82 11.56 -36.81 12.02 -146.64 48.28 -146.08 50.63c-12.08,4.2 -24.31,8.24 -36.53,12.57l-36.23 13.17 -72.76 26.46 -36.35 13.02 -18.13 6.65 -4.61 1.59c-0.13,0.15 -5.88,2.32 -1.57,0.58l-9.2 3.46 -73.47 28.5 -92.02 35.43 -17.53 7.22 -34.81 14.48 -69.58 28.76c-23.15,9.54 -46.3,18.8 -70.02,29.36l-141.18 61.74 -141.21 64.07 -35.35 16.06 -35.23 16.48 -141.2 66.23 -70.74 33.7 -141.62 67.67c-377.83,181.49 -762.87,367.6 -1166.89,520.01 -202.43,75.49 -409.47,141.29 -621.41,193.79l-38.38 9.39 -19.12 4.63 -20.41 4.33 -81.81 17.37c-27.33,6.06 -53.93,10.26 -80.96,15.17l-40.25 7.24c-13.38,2.31 -26.74,5.07 -40.25,6.94l-80.81 12.15c-13.51,1.87 -26.89,4.19 -40.4,5.78l-40.56 4.76 -80.93 9.7 -81.09 7.37 -40.56 3.63 -121.62 7.8c-27.05,1.3 -54.07,2.02 -81.09,3.04l-40.56 1.44c-13.51,0.58 -27.02,0.43 -40.53,0.72l-81.09 0.73c-27.04,0.29 -53.92,-0.73 -80.96,-1.02 -53.91,-0.28 -107.83,-3.04 -161.59,-5.19l-20.15 -0.87 -20.12 -1.31 -80.51 -5.5c-13.38,-0.87 -26.89,-1.73 -40.27,-3.04 -53.48,-5.04 -106.96,-9.24 -160.31,-15.89 -15.95,-1.89 -31.76,-3.76 -47.73,-5.65 10.22,14.17 20.71,28.19 30.04,42.95 31.36,48.74 58.53,100.37 80.09,154.59 21.56,54.23 37.25,110.91 46.15,168.62 4.46,28.91 6.92,57.98 7.92,87.04 1,29.08 -0.15,58 -2.87,86.78 -2.74,28.63 -7.05,57.11 -13.23,85.02 -2.74,13.89 -6.62,27.63 -9.92,41.37 -4.18,13.58 -7.77,27.32 -12.66,40.63 -7.34,22.41 -16.11,44.1 -25.31,65.51 14.82,-11.86 29.92,-23.71 45.43,-34.99 10.36,-7.53 20.56,-14.9 30.92,-22.42 10.35,-7.39 20.84,-14.6 31.35,-21.84l15.66 -10.98c5.33,-3.76 10.51,-7.39 15.82,-11l31.64 -21.54 15.81 -10.85 16.1 -10.41c10.64,-6.94 21.28,-13.89 32.06,-20.83 21.43,-13.59 42.99,-26.76 64.27,-39.76 27.04,-16.06 53.91,-31.24 80.67,-45.84 29.61,-23.72 60.09,-47.44 92.3,-70.87 45.71,-33.39 93.75,-66.95 144.2,-100.06 12.8,-8.24 25.59,-16.48 38.39,-24.74 12.94,-8.09 26.17,-16.2 39.26,-24.44 13.37,-7.95 26.74,-16.04 40.26,-24.15 13.66,-7.8 27.45,-15.76 41.25,-23.71 111,-63.05 231.91,-122.91 362.04,-175.56 65.12,-26.46 132.27,-51.33 201.58,-74.61 69.15,-23.28 140.32,-44.54 213.2,-64.35 145.8,-39.34 298.49,-71.3 456.08,-97.32 78.63,-13.02 158.72,-24.45 239.68,-34.71 81.09,-10.13 163.18,-18.94 246.14,-26.76 41.56,-3.9 83.24,-7.37 125.08,-10.7 21.28,-1.59 42.56,-3.17 63.99,-4.76 20.85,-1.46 41.84,-2.76 62.69,-4.06l31.63 -2.03c10.77,-0.43 21.69,-1 32.48,-1.43 21.72,-1.02 43.43,-2.02 65.28,-2.89 43.14,-1.18 86.55,-3.05 130.26,-3.33 87.14,-1.74 175.12,-0.74 263.7,1.72 22.13,0.74 44.27,1.45 66.42,2.04 22.28,1 44.43,2.02 66.71,3.02 22.28,1.02 44.56,2.46 66.86,3.77 22.28,1.3 44.56,2.6 66.99,4.34 178.72,12.44 358.87,32.11 538.89,56.98 360.15,49.45 719.6,118.28 1077.16,174.54 89.58,13.89 178.58,26.89 268.16,39.19 90.14,12 180.15,24 270.01,36 89.86,11.72 179.58,23.28 269.01,34.13 89.29,11.13 178.43,21.84 267.27,31.96 355.42,40.93 705.37,74.19 1044.54,96.32 339.18,22.26 667.41,33.54 978.69,32.52 155.57,-0.57 306.98,-4.05 453.19,-10.26 146.23,-6.37 287.41,-16.05 422.7,-27.48 135.31,-11.85 264.7,-26.74 387.63,-42.8 122.78,-16.35 238.81,-35 347.79,-54.37 108.7,-19.52 210.22,-40.63 303.8,-61.32 23.3,-5.35 46.16,-10.7 68.6,-15.76 22.28,-5.5 44.12,-10.85 65.55,-16.05 21.28,-5.06 42.13,-10.41 62.4,-15.63 20.28,-5.35 40.25,-10.11 59.38,-15.46 38.38,-10.41 74.91,-20.1 108.85,-30.08 17.1,-4.91 33.77,-9.54 49.74,-14.17 15.81,-4.77 31.2,-9.4 46.15,-13.89 29.76,-8.68 56.93,-17.63 82.09,-25.44 25.17,-7.67 47.73,-15.19 68.16,-21.85 20.28,-6.8 38.38,-12.43 53.76,-17.78 15.39,-5.35 28.48,-9.82 38.97,-13.3 20.85,-7.24 31.77,-11 31.77,-11 0,0 -10.34,4.91 -30.46,14.32 -20,9.4 -49.76,23.72 -89.01,40.92 -19.56,8.82 -41.56,18.67 -65.86,28.93 -24.28,10.41 -50.74,21.69 -79.64,33.26 -14.38,5.93 -29.48,12 -44.86,18.22 -15.53,6.37 -31.78,12.43 -48.45,18.95 -33.22,13.15 -68.88,26.02 -106.68,39.91 -150.97,54.81 -337.02,114.67 -554.42,169.91 -108.55,28.06 -224.86,54.37 -348.36,79.11 -123.36,25.02 -253.77,47.28 -390.5,67.24 -273.31,39.76 -571.67,68.4 -887.83,83.01 -316.02,14.46 -649.87,14.89 -994.35,2.02 -344.51,-12.73 -699.63,-38.6 -1059.06,-74.34 -89.88,-8.96 -180.02,-18.5 -270.32,-28.48 -90.29,-10.13 -180.71,-20.82 -271.29,-31.67 -45.3,-5.63 -90.6,-11.28 -136.03,-16.91 -45.27,-5.79 -90.57,-11.57 -135.87,-17.5l-68.43 -9.11c-22.86,-3.04 -45.73,-6.09 -68.58,-9.41 -45.73,-6.35 -91.29,-13.31 -136.74,-20.24 -364.18,-55.96 -721.89,-126.11 -1073.57,-177.15 -87.86,-13.02 -175.41,-24.74 -262.55,-35 -87.12,-10.26 -173.82,-19.52 -260.09,-26.6 -172.38,-14.61 -342.91,-22.57 -510.84,-23.29 -41.97,-0.58 -83.68,0.29 -125.37,0.44 -20.56,0.43 -41.12,1.02 -61.55,1.45 -10.33,0.29 -20.56,0.44 -30.76,0.72 -10.49,0.29 -21,0.72 -31.48,1.15 -21,0.72 -41.99,1.59 -62.84,2.46 -20.41,0.87 -40.69,1.74 -60.96,2.76 -20.56,1 -41.12,2.15 -61.53,3.17 -20.41,1.16 -40.84,2.31 -61.1,3.48 -81.39,4.76 -161.61,10.7 -240.55,17.63 -79.06,6.81 -156.85,15.05 -233.5,24.31 -76.47,9.24 -151.67,20.08 -225.43,32.24 -73.75,12 -145.94,25.73 -216.39,40.93 -141.19,30.5 -275.76,66.95 -402.43,109.89 -126.52,43.1 -245.42,91.84 -355.71,144.75 -55.07,26.61 -108.11,54.09 -159,82 -50.91,28.06 -99.5,56.84 -146.08,85.76 -46.58,28.91 -91.31,57.84 -133.57,87.06 -42.56,28.91 -82.96,57.84 -121.21,86.47 -38.38,28.35 -74.63,56.39 -109.13,83.72 -29.9,23.87 -58.23,47 -85.25,69.56 -3.89,4.05 -7.92,7.96 -11.94,12 -16.97,16.2 -32.92,32.98 -49.31,48.74 -32.65,31.67 -64.42,61.89 -94.62,90.67 -15.23,14.33 -29.46,28.78 -43.41,42.65 -7.04,6.81 -14.24,13.46 -20.86,20.26 -6.61,6.79 -13.21,13.44 -19.54,19.96 -26.32,25.89 -49.17,50.6 -70.6,72.02 -5.46,5.19 -10.05,10.84 -14.95,15.89 -4.89,5.21 -9.64,10.28 -14.1,15.04 -9.2,9.54 -17.68,18.22 -25.3,26.17 -14.8,16.2 -26.89,29.07 -35.36,37.61 -8.48,8.52 -13.23,13.02 -13.23,13.02l-0.3 0.28c-1.57,1.44 -3.72,2.03 -6.03,1.59 -3.46,-0.87 -5.61,-4.48 -4.74,-7.95 0,0 1.44,-6.37 4.88,-18.07 3.17,-11.87 8.48,-28.93 15.96,-50.63 3.88,-10.69 8.77,-22.11 13.95,-34.84 5.61,-12.59 11.07,-26.61 18.12,-40.63 7.03,-14.18 14.95,-29.07 23.29,-44.83 8.2,-15.91 18.25,-31.54 28.47,-48.17 5.16,-8.37 10.34,-16.76 15.95,-25.3 5.62,-8.39 11.64,-16.77 17.69,-25.44 12.51,-16.93 24.74,-35 39.1,-51.93 9.49,-12.13 19.99,-24 30.48,-36 11.08,-23 21.72,-45.98 31.07,-69.41 2.29,-6.09 4.88,-12 7.03,-17.93l6.61 -18.22 3.18 -8.98 3.02 -9.11 5.9 -18.21c7.18,-24.44 13.95,-48.87 18.54,-73.76 2.74,-12.29 4.31,-24.72 6.46,-37.02 1.59,-12.44 3.46,-24.72 4.33,-37.16 2.44,-24.73 3.15,-49.45 2.44,-74.04 -0.16,-12.3 -1.16,-24.43 -2.03,-36.58 -1.28,-12.15 -2.43,-24.3 -4.3,-36.3 -3.6,-24.16 -8.49,-47.87 -14.8,-71.29 -6.33,-23.28 -14.1,-46.14 -23.15,-68.56 -8.92,-22.41 -19.28,-44.24 -30.48,-65.65 -22.59,-42.8 -49.61,-83.15 -80.09,-121.17 -30.33,-37.89 -64.27,-73.17 -100.22,-106 -18.12,-16.34 -36.66,-31.97 -55.78,-46.71 -9.49,-7.24 -19.13,-14.46 -28.76,-21.26 -4.88,-3.48 -9.62,-6.65 -14.37,-9.83l-7.04 -4.63 -3.31 -2.02c-0.87,-0.58 -2.46,-1.45 -2.31,-1.3l65.14 -176z"/>
  
  <path class="fil2 logo_letra-c" d="M3383.19 12833.07c0,-262.09 55.97,-496.8 167.92,-704.17 111.95,-207.34 270.98,-372.09 477.07,-494.23 206.1,-122.13 451.62,-183.19 736.58,-183.19 251.88,0 471.97,43.26 660.24,129.75 188.28,86.52 340.31,210.56 456.08,372.13 115.77,161.56 186.37,353.03 211.82,574.38l-610.64 0c-30.54,-178.09 -110.68,-312.95 -240.43,-404.54 -129.77,-91.6 -286.24,-137.41 -469.44,-137.41 -234.06,0 -422.34,71.89 -564.83,215.64 -142.49,143.76 -213.73,354.3 -213.73,631.64 0,277.32 71.24,488.5 213.73,633.52 142.49,145.04 330.77,217.55 564.83,217.55 183.2,0 339.67,-46.43 469.44,-139.31 129.75,-92.86 209.89,-228.34 240.43,-406.45l610.64 0c-25.45,221.37 -96.05,412.82 -211.82,574.39 -115.77,161.56 -267.8,286.24 -456.08,374 -188.27,87.78 -408.36,131.68 -660.24,131.68 -284.96,0 -530.48,-61.07 -736.58,-183.21 -206.09,-122.12 -365.12,-287.49 -477.07,-496.14 -111.95,-208.63 -167.92,-443.98 -167.92,-706.03z"/>
  
  <path class="fil2 logo_letra-a1" d="M9172.74 14180.28l-618.27 0 -221.35 -671.7 -1133.52 0 -221.34 671.7 -618.28 0 908.34 -2690.63 992.29 0 912.13 2690.63zm-1484.61 -2156.33l-312.95 950.32 778.57 0 -312.97 -950.32 -152.65 0z"/>

  <path class="fil2 logo_letra-p" d="M10443.55 11489.65c170.48,0 328.24,11.46 473.26,34.34 145.02,22.91 271.61,66.8 379.73,131.68 108.13,64.88 192.73,159.65 253.81,284.31 61.06,124.69 91.6,288.8 91.6,492.34 0,203.55 -30.54,368.3 -91.6,494.23 -61.08,125.96 -145.68,221.37 -253.81,286.25 -108.12,64.87 -234.71,108.77 -379.73,131.66 -145.02,22.9 -302.78,34.35 -473.26,34.35l-354.91 0 0 801.47 -610.64 0 0 -2690.63 965.55 0zm-354.91 1354.87l393.09 0c122.13,0 223.9,-8.28 305.31,-24.83 81.43,-16.54 142.48,-54.07 183.21,-112.59 40.7,-58.51 61.06,-150.11 61.06,-274.78 0,-124.68 -20.36,-215.64 -61.06,-272.88 -40.73,-57.26 -101.78,-94.14 -183.21,-110.68 -81.41,-16.54 -183.18,-24.81 -305.31,-24.81l-393.09 0 0 820.57z"/>

  <polygon class="fil2 logo_letra-i" points="13817.29,11489.65 13817.29,12023.95 13206.65,12023.95 13206.65,13645.97 13817.29,13645.97 13817.29,14180.28 11985.37,14180.28 11985.37,13645.97 12596.01,13645.97 12596.01,12023.95 11985.37,12023.95 11985.37,11489.65 "/>

  <polygon class="fil2 logo_letra-t" points="14122.53,11489.65 16492.57,11489.65 16492.57,12023.95 15614.8,12023.95 15614.8,14180.28 15004.16,14180.28 15004.16,12023.95 14122.53,12023.95 "/>

  <path class="fil2 logo_letra-a2" d="M19496.11 14180.28l-618.28 0 -221.35 -671.7 -1133.51 0 -221.35 671.7 -618.28 0 908.34 -2690.63 992.29 0 912.14 2690.63zm-1484.62 -2156.33l-312.95 950.32 778.57 0 -312.97 -950.32 -152.65 0z"/>

  <path class="fil2 logo_letra-al" d="M21721.04 14180.28l-1591.49 38.17c-104.31,2.54 -185.08,-24.19 -242.32,-80.14 -57.24,-55.98 -85.87,-136.12 -85.87,-240.44l0 -2408.22 610.64 0 0 2194.49 1309.04 -38.17 0 534.31z"/>
  
  <path class="fil2 logo_palavra-veiculos" d="M5987.08 16135.66l141.18 0 475.09 1188.69 473.19 -1188.69 139.28 0 -547.6 1333.7 -137.37 0 -543.77 -1333.7zm1983.38 0l892.95 0 0 118.29 -761.29 0 0 477.02 681.14 0 0 118.28 -681.14 0 0 501.81 786.08 0 0 118.3 -917.74 0 0 -1333.7zm1771.59 0l131.66 0 0 1333.7 -131.66 0 0 -1333.7zm206.06 -375.88l131.66 57.24 -240.41 190.81 -114.48 -13.36 223.23 -234.69zm1846.02 646.81c-53.42,-52.14 -115.11,-92.84 -185.07,-122.1 -69.95,-29.25 -142.46,-43.88 -217.51,-43.88 -103.03,0 -197.48,24.8 -283.35,74.4 -85.85,49.61 -153.9,117.36 -204.15,203.21 -50.25,85.85 -75.36,179.66 -75.36,281.42 0,101.77 25.11,195.25 75.36,280.48 50.25,85.23 118.3,152.96 204.15,203.21 85.87,50.25 180.32,75.36 283.35,75.36 73.78,0 145.65,-14.3 215.61,-42.93 69.96,-28.61 132.28,-68.38 186.97,-119.25l80.14 85.85c-66.14,61.06 -141.82,109.4 -227.05,145.02 -85.23,35.61 -172.35,53.43 -261.39,53.43 -125.94,0 -241.68,-30.54 -347.27,-91.6 -105.58,-61.04 -189.2,-143.73 -250.9,-248.03 -61.68,-104.3 -92.52,-218.15 -92.52,-341.54 0,-123.38 31.16,-236.58 93.48,-339.61 62.33,-103.05 146.59,-184.76 252.82,-245.17 106.2,-60.44 222.27,-90.64 348.2,-90.64 90.32,0 177.45,16.86 261.4,50.55 83.94,33.72 157.72,80.47 221.33,140.24l-78.24 91.58zm1000.76 520.9c0,137.36 37.21,244.21 111.63,320.54 74.4,76.32 177.75,114.48 310.05,114.48 132.29,0 235.32,-38.16 309.09,-114.48 73.78,-76.33 110.67,-183.18 110.67,-320.54l0 -793.72 131.64 0 0 793.72c0,172.98 -48.64,308.46 -145.95,406.39 -97.32,97.95 -232.46,146.93 -405.45,146.93 -173,0 -308.46,-48.98 -406.41,-146.93 -97.95,-97.93 -146.91,-233.41 -146.91,-406.39l0 -793.72 131.64 0 0 793.72zm1893.71 -791.83l131.66 0 0 1215.4 587.66 0 0 118.3 -719.32 0 0 -1333.7zm2076.89 -11.44c127.2,0 243.89,30.2 350.12,90.64 106.2,60.41 190.49,142.12 252.81,245.17 62.33,103.03 93.49,216.23 93.49,339.61 0,123.39 -31.16,237.24 -93.49,341.54 -62.32,104.3 -146.61,186.99 -252.81,248.03 -106.23,61.06 -222.92,91.6 -350.12,91.6 -127.2,0 -243.91,-30.54 -350.11,-91.6 -106.23,-61.04 -190.49,-143.73 -252.82,-248.03 -62.32,-104.3 -93.48,-218.15 -93.48,-341.54 0,-123.38 31.16,-236.58 93.48,-339.61 62.33,-103.05 146.59,-184.76 252.82,-245.17 106.2,-60.44 222.91,-90.64 350.11,-90.64zm1.91 118.3c-101.76,0 -195.89,24.8 -282.39,74.4 -86.49,49.61 -155.18,117.03 -206.06,202.24 -50.89,85.23 -76.32,178.72 -76.32,280.48 0,101.77 25.43,195.9 76.32,282.39 50.88,86.49 119.57,154.87 206.06,205.12 86.5,50.24 180.63,75.36 282.39,75.36 100.48,0 193.66,-25.12 279.52,-75.36 85.87,-50.25 154.22,-118.63 205.11,-205.12 50.87,-86.49 76.31,-180.62 76.31,-282.39 0,-101.76 -25.44,-195.25 -76.31,-280.48 -50.89,-85.21 -119.24,-152.63 -205.11,-202.24 -85.86,-49.6 -179.04,-74.4 -279.52,-74.4zm2256.25 110.65c-54.71,-34.34 -114.49,-60.74 -179.36,-79.18 -64.88,-18.45 -125.94,-27.67 -183.18,-27.67 -91.57,0 -165.03,18.14 -220.36,54.39 -55.33,36.24 -83,85.55 -83,147.87 0,54.69 15.27,99.21 45.79,133.55 30.52,34.36 68.05,61.38 112.57,81.09 44.52,19.73 105.58,41.67 183.18,65.84 90.31,26.7 163.12,53.1 218.45,79.18 55.34,26.06 102.39,63.91 141.19,113.52 38.79,49.61 58.2,115.12 58.2,196.52 0,71.24 -20.03,134.21 -60.11,188.9 -40.06,54.69 -96.34,96.98 -168.85,126.88 -72.51,29.89 -155.81,44.84 -249.94,44.84 -92.86,0 -183.5,-18.44 -271.9,-55.33 -88.4,-36.89 -164.41,-85.87 -228,-146.91l61.06 -108.76c59.77,58.51 129.11,104.3 207.97,137.37 78.86,33.07 156.45,49.6 232.78,49.6 101.74,0 182.53,-20.67 242.3,-62 59.79,-41.35 89.69,-97 89.69,-166.96 0,-55.96 -15.27,-101.74 -45.81,-137.37 -30.52,-35.62 -68.05,-62.96 -112.57,-82.05 -44.5,-19.07 -106.85,-41.33 -186.97,-66.77 -90.32,-27.98 -162.83,-54.38 -217.52,-79.18 -54.69,-24.81 -101.12,-61.7 -139.29,-110.66 -38.15,-48.98 -57.24,-112.9 -57.24,-191.76 0,-67.42 19.09,-126.57 57.24,-177.44 38.17,-50.9 91.6,-89.99 160.27,-117.36 68.69,-27.34 148.2,-41.01 238.51,-41.01 72.51,0 145.32,10.81 218.47,32.43 73.14,21.62 137.69,50.25 193.67,85.87l-57.24 112.56z"/>
 </g>
</svg>
