<?xml version="1.0" standalone="no"?>
<!DOCTYPE svg PUBLIC "-//W3C//DTD SVG 20010904//EN"
 "http://www.w3.org/TR/2001/REC-SVG-20010904/DTD/svg10.dtd">
<svg version="1.0" xmlns="http://www.w3.org/2000/svg"
 width="700.000000pt" height="700.000000pt" viewBox="0 0 700.000000 700.000000"
 preserveAspectRatio="xMidYMid meet">
<metadata>
Created by potrace 1.14, written by Peter Selinger 2001-2017
</metadata>
<g transform="translate(0.000000,700.000000) scale(0.100000,-0.100000)"
fill="#000000" stroke="none">
<path d="M3027 5104 c-1 -1 -45 -4 -97 -8 -107 -7 -258 -24 -279 -32 -8 -2
-30 -7 -50 -10 -113 -17 -361 -93 -501 -153 -72 -32 -281 -135 -386 -192 -89
-48 -263 -120 -347 -144 -122 -35 -218 -48 -360 -49 -112 -1 -130 -3 -138 -19
-8 -14 -2 -27 35 -68 71 -79 75 -158 11 -259 -19 -30 -35 -58 -35 -64 0 -5 33
22 73 61 217 209 453 289 852 288 103 -1 244 -10 291 -19 27 -5 90 -16 129
-21 17 -3 39 -6 50 -9 11 -2 40 -7 65 -11 70 -11 103 -16 130 -20 82 -12 244
-29 405 -41 168 -13 508 -7 615 10 14 2 48 7 75 11 72 10 208 43 295 72 98 33
143 57 60 33 -45 -14 -153 -37 -210 -45 -24 -4 -47 -8 -50 -10 -42 -25 -703
-26 -835 -1 -11 2 -51 7 -90 11 -80 7 -99 10 -210 25 -111 16 -119 17 -220 34
-49 8 -112 18 -140 22 -27 3 -52 7 -55 9 -10 6 -207 19 -280 18 -104 -1 -295
-18 -311 -29 -5 -3 -9 -2 -9 3 0 4 50 27 111 51 60 24 167 70 237 104 251 119
328 151 492 205 193 62 378 104 569 126 115 14 469 16 546 3 22 -4 79 -14 126
-22 174 -29 361 -92 512 -173 29 -15 92 -49 141 -76 294 -158 422 -205 628
-229 45 -6 82 -11 158 -22 19 -2 51 -7 70 -9 145 -18 451 -71 515 -89 97 -27
128 -37 183 -59 168 -69 293 -189 317 -305 4 -18 11 -30 16 -27 12 8 -28 111
-62 162 -86 125 -264 222 -529 287 -85 20 -427 85 -590 110 -273 43 -373 79
-640 233 -19 11 -73 42 -120 69 -178 103 -407 192 -565 219 -22 4 -50 9 -63
11 -12 2 -48 8 -80 14 -72 12 -444 32 -455 24z m-1527 -608 c0 -2 -9 -6 -20
-9 -11 -3 -18 -1 -14 4 5 9 34 13 34 5z m-155 -45 c-90 -32 -142 -58 -216
-108 -141 -95 -162 -106 -150 -84 17 31 13 108 -8 150 l-18 39 136 -1 c133 -1
248 7 259 18 3 3 15 5 26 5 12 -1 -1 -9 -29 -19z"/>
<path d="M1247 3784 c-192 -36 -304 -188 -295 -403 2 -73 8 -97 36 -153 67
-137 174 -203 337 -207 191 -5 337 96 374 258 8 37 7 41 -10 42 -149 4 -153 3
-161 -30 -31 -118 -233 -163 -334 -74 -50 44 -68 88 -71 176 -2 86 8 126 45
176 63 85 232 97 316 23 10 -9 28 -36 38 -60 l19 -43 82 3 c81 3 82 3 79 28
-5 40 -51 132 -80 164 -83 88 -228 127 -375 100z"/>
<path d="M2048 3782 c-10 -2 -53 -117 -132 -350 -65 -191 -122 -359 -126 -374
l-9 -28 88 0 88 0 27 90 c23 72 32 91 50 95 11 2 84 3 160 2 l140 -2 30 -92
30 -93 88 0 87 0 -120 353 c-66 193 -122 360 -124 371 -3 10 -6 21 -8 23 -5 5
-247 9 -269 5z m190 -280 c23 -69 40 -127 38 -130 -6 -5 -197 -5 -203 1 -5 6
61 214 78 249 5 9 16 14 27 11 13 -3 29 -39 60 -131z"/>
<path d="M2674 3782 c-20 -3 -20 -7 -20 -377 l0 -375 86 0 86 0 -1 110 c-1 70
3 110 10 111 5 0 55 2 110 5 55 2 107 5 115 7 97 24 142 54 171 115 19 38 23
65 23 137 1 55 -4 103 -13 125 -33 82 -108 128 -226 136 -82 6 -311 10 -341 6z
m342 -157 c17 -3 38 -13 47 -23 22 -25 30 -83 18 -129 -14 -53 -44 -65 -164
-69 l-92 -2 1 101 c1 56 2 109 3 117 1 13 15 15 79 13 42 -1 91 -4 108 -8z"/>
<path d="M3373 3780 c-15 -4 -18 -15 -17 -65 1 -33 2 -65 3 -71 1 -8 29 -11
84 -10 l82 1 1 -228 0 -227 -86 0 -85 0 0 -72 0 -73 258 -3 257 -2 0 75 0 75
-85 0 c-74 0 -85 2 -85 18 -3 192 0 425 4 430 4 3 41 6 84 6 l77 1 3 73 c2 39
-1 72 -5 73 -32 4 -476 3 -490 -1z"/>
<path d="M3961 3780 c-5 -3 -7 -36 -7 -75 l1 -70 123 0 122 0 0 -302 0 -303
85 0 85 0 1 33 c0 17 1 152 0 300 l0 267 22 1 c12 0 67 1 122 2 l100 2 0 74 0
74 -323 1 c-178 1 -327 -1 -331 -4z"/>
<path d="M4944 3782 c-17 -3 -38 -56 -147 -377 l-126 -375 87 0 88 0 30 93 30
92 159 0 159 0 30 -92 30 -93 87 0 88 0 -9 28 c-12 40 -243 716 -245 720 -4 4
-235 8 -261 4z m185 -280 c22 -69 39 -128 36 -130 -6 -7 -195 -5 -202 2 -3 3
11 51 30 108 55 160 53 157 76 151 15 -4 29 -33 60 -131z"/>
<path d="M5551 3780 c-4 -3 -7 -162 -6 -355 1 -385 2 -390 61 -401 33 -6 464
3 471 10 4 4 6 67 4 118 l-1 26 -182 -1 -183 -2 0 303 c0 194 -4 302 -10 303
-54 3 -148 3 -154 -1z"/>
<path d="M2753 2554 c-26 -28 -28 -33 -12 -37 11 -3 29 8 49 28 28 29 29 33
13 37 -13 3 -29 -6 -50 -28z"/>
<path d="M1698 2482 c-10 -2 -18 -5 -18 -7 0 -3 25 -66 44 -110 7 -16 33 -81
57 -142 37 -94 48 -113 65 -113 17 0 28 17 59 93 21 50 46 110 55 132 57 132
59 140 43 143 -8 2 -18 0 -23 -5 -4 -4 -33 -73 -64 -153 -32 -80 -61 -148 -65
-153 -4 -4 -36 66 -72 156 -52 131 -67 162 -81 159z"/>
<path d="M2258 2482 l-28 -3 0 -185 0 -184 130 0 c109 0 130 2 130 15 0 17 1
17 -127 17 l-93 0 0 69 c0 59 3 69 18 70 9 1 52 1 95 0 69 0 78 2 75 17 -3 15
-17 17 -96 17 l-92 0 0 68 0 67 105 0 c87 0 105 3 105 15 0 8 -6 15 -12 16
-66 3 -189 3 -210 1z"/>
<path d="M3131 2474 c-138 -41 -179 -205 -78 -312 30 -31 109 -64 139 -58 68
14 87 20 108 36 19 15 22 22 13 31 -9 9 -19 7 -45 -9 -44 -27 -126 -25 -165 4
-45 34 -72 91 -68 143 10 112 139 178 234 120 22 -13 37 -17 43 -11 14 14 4
27 -35 45 -48 23 -95 27 -146 11z"/>
<path d="M3555 2484 c-7 -3 -10 -52 -9 -139 2 -151 13 -184 73 -219 70 -41
186 -13 217 53 23 47 28 290 7 298 -8 3 -16 3 -19 1 -2 -3 -5 -66 -7 -140 -3
-145 -7 -157 -58 -184 -55 -28 -123 -14 -155 33 -16 23 -19 49 -20 157 -2 124
-7 148 -29 140z"/>
<path d="M4611 2465 c-78 -37 -118 -107 -108 -190 19 -175 252 -229 354 -82
23 33 28 51 28 102 0 51 -5 69 -28 104 -51 77 -159 106 -246 66z m159 -34
c110 -58 102 -230 -12 -276 -107 -42 -207 18 -216 131 -4 46 0 60 21 92 45 69
135 92 207 53z"/>
<path d="M5173 2478 c-40 -10 -73 -52 -73 -90 0 -41 43 -81 110 -103 30 -9 65
-24 78 -31 29 -19 29 -64 1 -90 -30 -27 -112 -24 -160 5 -31 18 -38 19 -42 7
-7 -17 31 -48 72 -61 39 -12 108 -7 140 10 37 19 51 43 51 87 0 45 -38 80
-112 103 -70 21 -103 53 -94 90 11 44 84 59 151 31 19 -8 35 -13 35 -11 0 2 3
10 6 18 11 28 -100 52 -163 35z"/>
<path d="M2729 2405 c0 -41 0 -118 0 -170 0 -130 -1 -125 19 -125 16 0 17 15
17 185 0 169 -1 185 -17 185 -16 0 -18 -11 -19 -75z"/>
<path d="M4112 2295 l1 -185 97 0 c78 0 99 3 104 15 6 17 5 17 -96 17 l-68 0
0 169 c0 161 -1 169 -19 169 -19 0 -20 -8 -19 -185z"/>
</g>
</svg>
